<?xml version="1.0" encoding="UTF-8" standalone="no"?>
<!DOCTYPE svg PUBLIC "-//W3C//DTD SVG 1.1//EN" "http://www.w3.org/Graphics/SVG/1.1/DTD/svg11.dtd">
<svg class="railroad-diagram" width="851.5" height="164" viewBox="0 0 851.5 164" xmlns="http://www.w3.org/2000/svg" xmlns:xlink="http://www.w3.org/1999/xlink"><g transform="translate(.5 .5)"><g><path d="M20 37v20m0 -10h20"></path></g><g><path d="M40 47h0"></path><path d="M811.5 47h0"></path><path d="M40 47h20"></path><g><path d="M60 47h0"></path><g><path d="M60 47h10"></path><path d="M781.5 47h10"></path><g class="terminal "><path d="M70 47h0"></path><path d="M115.5 47h0"></path><rect x="70" y="36" width="45.5" height="22"></rect><text x="92.75" y="51">'&lt;'</text></g><path d="M115.5 47h10"></path><path d="M125.5 47h10"></path><g class="terminal "><path d="M135.5 47h0"></path><path d="M189.5 47h0"></path><rect x="135.5" y="36" width="54" height="22"></rect><text x="162.5" y="51">Name</text></g><path d="M189.5 47h10"></path><g><path d="M199.5 47h0"></path><path d="M356 47h0"></path><path d="M199.5 47a10 10 0 0 0 10 -10v-7a10 10 0 0 1 10 -10"></path><g><path d="M219.5 20h116.5"></path></g><path d="M336 20a10 10 0 0 1 10 10v7a10 10 0 0 0 10 10"></path><path d="M199.5 47h20"></path><g><path d="M219.5 47h0"></path><path d="M336 47h0"></path><path d="M219.5 47h10"></path><g class="non-terminal "><path d="M229.5 47h0"></path><path d="M326 47h0"></path><rect x="229.5" y="36" width="96.5" height="22" rx="10" ry="10"></rect><text x="277.75" y="51">attribute</text></g><path d="M326 47h10"></path><path d="M229.5 47a10 10 0 0 0 -10 10v7a10 10 0 0 0 10 10"></path><g><path d="M229.5 74h96.5"></path></g><path d="M326 74a10 10 0 0 0 10 -10v-7a10 10 0 0 0 -10 -10"></path></g><path d="M336 47h20"></path></g><path d="M356 47h10"></path><g class="terminal "><path d="M366 47h0"></path><path d="M411.5 47h0"></path><rect x="366" y="36" width="45.5" height="22"></rect><text x="388.75" y="51">'&gt;'</text></g><path d="M411.5 47h10"></path><path d="M421.5 47h10"></path><g class="non-terminal "><path d="M431.5 47h0"></path><path d="M511 47h0"></path><rect x="431.5" y="36" width="79.5" height="22" rx="10" ry="10"></rect><text x="471.25" y="51">content</text></g><path d="M511 47h10"></path><path d="M521 47h10"></path><g class="terminal "><path d="M531 47h0"></path><path d="M576.5 47h0"></path><rect x="531" y="36" width="45.5" height="22"></rect><text x="553.75" y="51">'&lt;'</text></g><path d="M576.5 47h10"></path><path d="M586.5 47h10"></path><g class="terminal "><path d="M596.5 47h0"></path><path d="M642 47h0"></path><rect x="596.5" y="36" width="45.5" height="22"></rect><text x="619.25" y="51">'/'</text></g><path d="M642 47h10"></path><path d="M652 47h10"></path><g class="terminal "><path d="M662 47h0"></path><path d="M716 47h0"></path><rect x="662" y="36" width="54" height="22"></rect><text x="689" y="51">Name</text></g><path d="M716 47h10"></path><path d="M726 47h10"></path><g class="terminal "><path d="M736 47h0"></path><path d="M781.5 47h0"></path><rect x="736" y="36" width="45.5" height="22"></rect><text x="758.75" y="51">'&gt;'</text></g></g><path d="M791.5 47h0"></path></g><path d="M791.5 47h20"></path><path d="M40 47a10 10 0 0 1 10 10v50a10 10 0 0 0 10 10"></path><g><path d="M60 117h180.75"></path><g><path d="M240.75 117h10"></path><path d="M600.75 117h10"></path><g class="terminal "><path d="M250.75 117h0"></path><path d="M296.25 117h0"></path><rect x="250.75" y="106" width="45.5" height="22"></rect><text x="273.5" y="121">'&lt;'</text></g><path d="M296.25 117h10"></path><path d="M306.25 117h10"></path><g class="terminal "><path d="M316.25 117h0"></path><path d="M370.25 117h0"></path><rect x="316.25" y="106" width="54" height="22"></rect><text x="343.25" y="121">Name</text></g><path d="M370.25 117h10"></path><g><path d="M380.25 117h0"></path><path d="M536.75 117h0"></path><path d="M380.25 117a10 10 0 0 0 10 -10v-7a10 10 0 0 1 10 -10"></path><g><path d="M400.25 90h116.5"></path></g><path d="M516.75 90a10 10 0 0 1 10 10v7a10 10 0 0 0 10 10"></path><path d="M380.25 117h20"></path><g><path d="M400.25 117h0"></path><path d="M516.75 117h0"></path><path d="M400.25 117h10"></path><g class="non-terminal "><path d="M410.25 117h0"></path><path d="M506.75 117h0"></path><rect x="410.25" y="106" width="96.5" height="22" rx="10" ry="10"></rect><text x="458.5" y="121">attribute</text></g><path d="M506.75 117h10"></path><path d="M410.25 117a10 10 0 0 0 -10 10v7a10 10 0 0 0 10 10"></path><g><path d="M410.25 144h96.5"></path></g><path d="M506.75 144a10 10 0 0 0 10 -10v-7a10 10 0 0 0 -10 -10"></path></g><path d="M516.75 117h20"></path></g><path d="M536.75 117h10"></path><g class="terminal "><path d="M546.75 117h0"></path><path d="M600.75 117h0"></path><rect x="546.75" y="106" width="54" height="22"></rect><text x="573.75" y="121">'/&gt;'</text></g></g><path d="M610.75 117h180.75"></path></g><path d="M791.5 117a10 10 0 0 0 10 -10v-50a10 10 0 0 1 10 -10"></path></g><path d="M 811.5 47 h 20 m 0 -10 v 20"></path></g><defs><style type="text/css"><![CDATA[
svg.railroad-diagram path { stroke-width: 2; stroke: darkgray; fill: rgba(0, 0, 0, 0);}/* All text except comments. */svg.railroad-diagram text { font: bold 12px Hack, "Source Code Pro", monospace; text-anchor: middle; fill: #404040;}/* Comment text */svg.railroad-diagram text.comment { font: italic 10px Hack, "Source Code Pro", monospace; fill: #404040;}/* The terminal boxes. */svg.railroad-diagram g.terminal rect { stroke-width: 2; stroke: #404040; fill: rgba(200, 200, 200, 1);}svg.railroad-diagram g.non-terminal rect { /* The non-terminal boxes. */ stroke-width: 2; stroke: #404040; fill: rgba(255, 255, 255, 1);}/* Multiple choice text, not working atm. */svg.railroad-diagram text.diagram-text { font-size: 12px Hack, "Source Code Pro", monospace; fill: red;}/* Multiple choice text, not working atm. */svg.railroad-diagram path.diagram-text { stroke-width: 1; stroke: red; fill: red; cursor: help;}
 ]]>
</style></defs></svg>