<?xml version="1.0" encoding="UTF-8" standalone="no"?>
<!DOCTYPE svg PUBLIC "-//W3C//DTD SVG 1.1//EN" "http://www.w3.org/Graphics/SVG/1.1/DTD/svg11.dtd">
<svg class="railroad-diagram" width="433" height="164" viewBox="0 0 433 164" xmlns="http://www.w3.org/2000/svg" xmlns:xlink="http://www.w3.org/1999/xlink"><g transform="translate(.5 .5)"><g><path d="M20 37v20m10 -20v20m-10 -10h20"></path></g><g><path d="M40 47h0"></path><path d="M393 47h0"></path><path d="M40 47h20"></path><g><path d="M60 47h8.5"></path><g><path d="M68.5 47h10"></path><path d="M354.5 47h10"></path><g class="terminal "><path d="M78.5 47h0"></path><path d="M124 47h0"></path><rect x="78.5" y="36" width="45.5" height="22"></rect><text x="101.25" y="51">'"'</text></g><path d="M124 47h10"></path><g><path d="M134 47h0"></path><path d="M299 47h0"></path><path d="M134 47a10 10 0 0 0 10 -10v-7a10 10 0 0 1 10 -10"></path><g><path d="M154 20h125"></path></g><path d="M279 20a10 10 0 0 1 10 10v7a10 10 0 0 0 10 10"></path><path d="M134 47h20"></path><g><path d="M154 47h0"></path><path d="M279 47h0"></path><path d="M154 47h10"></path><g><path d="M164 47h0"></path><path d="M269 47h0"></path><g class="comment "><path d="M164 47h0"></path><path d="M195 47h0"></path><text x="179.5" y="52" class="comment">not</text></g><path d="M195 47h10"></path><path d="M205 47h10"></path><g class="terminal "><path d="M215 47h0"></path><path d="M269 47h0"></path><rect x="215" y="36" width="54" height="22"></rect><text x="242" y="51">[&lt;"]</text></g></g><path d="M269 47h10"></path><path d="M164 47a10 10 0 0 0 -10 10v7a10 10 0 0 0 10 10"></path><g><path d="M164 74h105"></path></g><path d="M269 74a10 10 0 0 0 10 -10v-7a10 10 0 0 0 -10 -10"></path></g><path d="M279 47h20"></path></g><path d="M299 47h10"></path><g class="terminal "><path d="M309 47h0"></path><path d="M354.5 47h0"></path><rect x="309" y="36" width="45.5" height="22"></rect><text x="331.75" y="51">'"'</text></g></g><path d="M364.5 47h8.5"></path></g><path d="M373 47h20"></path><path d="M40 47a10 10 0 0 1 10 10v50a10 10 0 0 0 10 10"></path><g><path d="M60 117h0"></path><g><path d="M60 117h10"></path><path d="M363 117h10"></path><g class="terminal "><path d="M70 117h0"></path><path d="M124 117h0"></path><rect x="70" y="106" width="54" height="22"></rect><text x="97" y="121">'\''</text></g><path d="M124 117h10"></path><g><path d="M134 117h0"></path><path d="M299 117h0"></path><path d="M134 117a10 10 0 0 0 10 -10v-7a10 10 0 0 1 10 -10"></path><g><path d="M154 90h125"></path></g><path d="M279 90a10 10 0 0 1 10 10v7a10 10 0 0 0 10 10"></path><path d="M134 117h20"></path><g><path d="M154 117h0"></path><path d="M279 117h0"></path><path d="M154 117h10"></path><g><path d="M164 117h0"></path><path d="M269 117h0"></path><g class="comment "><path d="M164 117h0"></path><path d="M195 117h0"></path><text x="179.5" y="122" class="comment">not</text></g><path d="M195 117h10"></path><path d="M205 117h10"></path><g class="terminal "><path d="M215 117h0"></path><path d="M269 117h0"></path><rect x="215" y="106" width="54" height="22"></rect><text x="242" y="121">[&lt;']</text></g></g><path d="M269 117h10"></path><path d="M164 117a10 10 0 0 0 -10 10v7a10 10 0 0 0 10 10"></path><g><path d="M164 144h105"></path></g><path d="M269 144a10 10 0 0 0 10 -10v-7a10 10 0 0 0 -10 -10"></path></g><path d="M279 117h20"></path></g><path d="M299 117h10"></path><g class="terminal "><path d="M309 117h0"></path><path d="M363 117h0"></path><rect x="309" y="106" width="54" height="22"></rect><text x="336" y="121">'\''</text></g></g><path d="M373 117h0"></path></g><path d="M373 117a10 10 0 0 0 10 -10v-50a10 10 0 0 1 10 -10"></path></g><path d="M 393 47 h 20 m -10 -10 v 20 m 10 -20 v 20"></path></g><defs><style type="text/css"><![CDATA[
svg.railroad-diagram path { stroke-width: 2; stroke: darkgray; fill: rgba(0, 0, 0, 0);}/* All text except comments. */svg.railroad-diagram text { font: bold 12px Hack, "Source Code Pro", monospace; text-anchor: middle; fill: #404040;}/* Comment text */svg.railroad-diagram text.comment { font: italic 10px Hack, "Source Code Pro", monospace; fill: #404040;}/* The terminal boxes. */svg.railroad-diagram g.terminal rect { stroke-width: 2; stroke: #404040; fill: rgba(200, 200, 200, 1);}svg.railroad-diagram g.non-terminal rect { /* The non-terminal boxes. */ stroke-width: 2; stroke: #404040; fill: rgba(255, 255, 255, 1);}/* Multiple choice text, not working atm. */svg.railroad-diagram text.diagram-text { font-size: 12px Hack, "Source Code Pro", monospace; fill: red;}/* Multiple choice text, not working atm. */svg.railroad-diagram path.diagram-text { stroke-width: 1; stroke: red; fill: red; cursor: help;}
 ]]>
</style></defs></svg>