<?xml version="1.0" encoding="UTF-8" standalone="no"?>
<!DOCTYPE svg PUBLIC "-//W3C//DTD SVG 1.1//EN" "http://www.w3.org/Graphics/SVG/1.1/DTD/svg11.dtd">
<svg class="railroad-diagram" width="624.5" height="94" viewBox="0 0 624.5 94" xmlns="http://www.w3.org/2000/svg" xmlns:xlink="http://www.w3.org/1999/xlink"><g transform="translate(.5 .5)"><g><path d="M20 37v20m10 -20v20m-10 -10h20"></path></g><g><path d="M40 47h0"></path><path d="M584.5 47h0"></path><path d="M40 47h20"></path><g><path d="M60 47h0"></path><g><path d="M60 47h10"></path><path d="M554.5 47h10"></path><g><path d="M70 47h0"></path><path d="M155.5 47h0"></path><path d="M70 47a10 10 0 0 0 10 -10v-7a10 10 0 0 1 10 -10"></path><g><path d="M90 20h45.5"></path></g><path d="M135.5 20a10 10 0 0 1 10 10v7a10 10 0 0 0 10 10"></path><path d="M70 47h20"></path><g class="terminal "><path d="M90 47h0"></path><path d="M135.5 47h0"></path><rect x="90" y="36" width="45.5" height="22"></rect><text x="112.75" y="51">'-'</text></g><path d="M135.5 47h20"></path></g><path d="M155.5 47h10"></path><g class="terminal "><path d="M165.5 47h0"></path><path d="M211 47h0"></path><rect x="165.5" y="36" width="45.5" height="22"></rect><text x="188.25" y="51">INT</text></g><path d="M211 47h10"></path><g><path d="M221 47h0"></path><path d="M469 47h0"></path><path d="M221 47a10 10 0 0 0 10 -10v-7a10 10 0 0 1 10 -10"></path><g><path d="M241 20h208"></path></g><path d="M449 20a10 10 0 0 1 10 10v7a10 10 0 0 0 10 10"></path><path d="M221 47h20"></path><g><path d="M241 47h0"></path><path d="M449 47h0"></path><path d="M241 47h20"></path><g><path d="M261 47h0"></path><g><path d="M261 47h10"></path><path d="M419 47h10"></path><g class="terminal "><path d="M271 47h0"></path><path d="M316.5 47h0"></path><rect x="271" y="36" width="45.5" height="22"></rect><text x="293.75" y="51">'.'</text></g><path d="M316.5 47h10"></path><path d="M326.5 47h10"></path><g><path d="M336.5 47h0"></path><path d="M419 47h0"></path><path d="M336.5 47h10"></path><g class="terminal "><path d="M346.5 47h0"></path><path d="M409 47h0"></path><rect x="346.5" y="36" width="62.5" height="22"></rect><text x="377.75" y="51">[0-9]</text></g><path d="M409 47h10"></path><path d="M346.5 47a10 10 0 0 0 -10 10v7a10 10 0 0 0 10 10"></path><g><path d="M346.5 74h62.5"></path></g><path d="M409 74a10 10 0 0 0 10 -10v-7a10 10 0 0 0 -10 -10"></path></g></g><path d="M429 47h0"></path></g><path d="M429 47h20"></path></g><path d="M449 47h20"></path></g><g><path d="M469 47h0"></path><path d="M554.5 47h0"></path><path d="M469 47a10 10 0 0 0 10 -10v-7a10 10 0 0 1 10 -10"></path><g><path d="M489 20h45.5"></path></g><path d="M534.5 20a10 10 0 0 1 10 10v7a10 10 0 0 0 10 10"></path><path d="M469 47h20"></path><g class="terminal "><path d="M489 47h0"></path><path d="M534.5 47h0"></path><rect x="489" y="36" width="45.5" height="22"></rect><text x="511.75" y="51">EXP</text></g><path d="M534.5 47h20"></path></g></g><path d="M564.5 47h0"></path></g><path d="M564.5 47h20"></path></g><path d="M 584.5 47 h 20 m -10 -10 v 20 m 10 -20 v 20"></path></g><defs><style type="text/css"><![CDATA[
svg.railroad-diagram path { stroke-width: 2; stroke: darkgray; fill: rgba(0, 0, 0, 0);}/* All text except comments. */svg.railroad-diagram text { font: bold 12px Hack, "Source Code Pro", monospace; text-anchor: middle; fill: #404040;}/* Comment text */svg.railroad-diagram text.comment { font: italic 10px Hack, "Source Code Pro", monospace; fill: #404040;}/* The terminal boxes. */svg.railroad-diagram g.terminal rect { stroke-width: 2; stroke: #404040; fill: rgba(200, 200, 200, 1);}svg.railroad-diagram g.non-terminal rect { /* The non-terminal boxes. */ stroke-width: 2; stroke: #404040; fill: rgba(255, 255, 255, 1);}/* Multiple choice text, not working atm. */svg.railroad-diagram text.diagram-text { font-size: 12px Hack, "Source Code Pro", monospace; fill: red;}/* Multiple choice text, not working atm. */svg.railroad-diagram path.diagram-text { stroke-width: 1; stroke: red; fill: red; cursor: help;}
 ]]>
</style></defs></svg>